<?xml version="1.0" encoding="utf-8"?>
<!-- Generator: Adobe Illustrator 26.0.1, SVG Export Plug-In . SVG Version: 6.00 Build 0)  -->
<svg version="1.1" id="Layer_1" xmlns="http://www.w3.org/2000/svg" xmlns:xlink="http://www.w3.org/1999/xlink" x="0px" y="0px"
	 viewBox="0 0 452 452" style="enable-background:new 0 0 452 452;" xml:space="preserve">
<style type="text/css">
	.st0{fill:#00BEF2;}
	.st1{fill:#F99E26;}
	.st2{fill:none;stroke:#F99E26;stroke-width:4;stroke-miterlimit:10;}
	.st3{fill:none;}
	.st4{clip-path:url(#SVGID_00000078034410441963861720000001112970625810248873_);}
	.st5{fill:#E59777;}
	.st6{fill:#FABCA5;}
	.st7{fill:#F7EBDF;}
	.st8{fill:#FCF7F2;}
	.st9{opacity:0.81;fill:#E59777;}
	.st10{fill:#FCBA69;}
	.st11{fill:#F9A44F;}
	.st12{fill:#FFD78D;}
	.st13{fill:#CB7D2F;}
	.st14{fill:#E5852E;}
	.st15{fill:#569140;}
	.st16{fill:#317439;}
</style>
<g>
	
		<ellipse transform="matrix(0.7071 -0.7071 0.7071 0.7071 -93.8238 225.4892)" class="st0" cx="225.3" cy="226" rx="159.2" ry="159.2"/>
	<g>
		<g>
			<path class="st1" d="M30.6,218.1c0,6,4,7.9,4,7.9c0,0-4,1.9-4,7.9c0,6,5.5,9.2,11.6,6.4c6.1-2.8,13.6-14.3,13.6-14.3h0l0,0l0,0h0
				c0,0-7.5-11.5-13.6-14.3C36.1,208.8,30.6,212.1,30.6,218.1z"/>
			<path class="st1" d="M421.4,218.1c0,6-4,7.9-4,7.9c0,0,4,1.9,4,7.9c0,6-5.5,9.2-11.6,6.4c-6.1-2.8-13.6-14.3-13.6-14.3l0,0l0,0
				l0,0l0,0c0,0,7.5-11.5,13.6-14.3C415.9,208.8,421.4,212.1,421.4,218.1z"/>
		</g>
		<g>
			<path class="st2" d="M107.4,360.4c-26.8-23.7-46.5-55.2-55.4-91"/>
			<path class="st2" d="M400,269.4c-8.9,35.8-28.6,67.4-55.4,91"/>
			<path class="st2" d="M93.8,360.4c-24.9-24.5-43-55.9-51.3-91"/>
			<path class="st2" d="M409.5,269.4c-8.3,35.2-26.4,66.5-51.3,91"/>
		</g>
	</g>
	<g>
		<g>
			<path id="SVGID_x5F_1_x5F_" class="st3" d="M423.1,188C402.1,79.2,296.9,8,188,28.9C79.2,49.9,8,155.1,28.9,264
				c21,108.8,126.2,180.1,235,159.1C372.8,402.1,444,296.9,423.1,188z"/>
			<text>			<textPath  xlink:href="#SVGID_x5F_1_x5F_" startOffset="1815.5973%">
<tspan  style="fill:#008DC0; font-family:'Roboto-Bold'; font-size:40px;">Nonprofit</tspan>			</textPath>
</text>
		</g>
		<path id="SVGID_x5F_00000117643794748181768480000016724285418451915150_x5F_" class="st3" d="M61,169.3
			C92.3,78.2,191.5,29.7,282.6,61C373.8,92.3,422.3,191.5,391,282.7C359.7,373.8,260.5,422.3,169.3,391
			C78.2,359.7,29.7,260.5,61,169.3z"/>
		<text>		<textPath  xlink:href="#SVGID_x5F_00000117643794748181768480000016724285418451915150_x5F_" startOffset="0%">
<tspan  style="fill:#008DC0; font-family:'Roboto-Bold'; font-size:43px;">Humanity in a pack</tspan>		</textPath>
</text>
	</g>
	<g>
		<defs>
			
				<ellipse id="SVGID_00000181770813320237755250000004625601466759152018_" transform="matrix(0.7071 -0.7071 0.7071 0.7071 -93.6701 225.408)" cx="225.3" cy="225.8" rx="159.2" ry="159.2"/>
		</defs>
		<clipPath id="SVGID_00000122001969130438457660000017191805786581363383_">
			<use xlink:href="#SVGID_00000181770813320237755250000004625601466759152018_"  style="overflow:visible;"/>
		</clipPath>
		<g style="clip-path:url(#SVGID_00000122001969130438457660000017191805786581363383_);">
			<g>
				<g>
					<g>
						<g>
							<path class="st5" d="M188.9,328.5l-3.6-14.6c0,0,41.9-17.8,56.1-24.6c3.6-1.7,14.4-5.3,16.3-3.4c2.9,2.9-4.3,9.3-7.9,11.1
								L188.9,328.5z"/>
						</g>
					</g>
					<path class="st6" d="M263.9,291.9c0,0.1-0.1,0.3-0.1,0.4c-0.6,2.4-2.7,4.9-5.2,7c-0.1,0-0.1,0.1-0.2,0.1
						c-0.4,0.3-0.8,0.7-1.2,1c-0.2,0.1-0.3,0.2-0.5,0.4c0,0,0,0,0,0c-0.7,0.5-1.4,1-2,1.4c0,0-0.1,0-0.1,0.1
						c-0.4,0.3-0.8,0.5-1.2,0.7c-0.5,0.3-1.1,0.6-1.5,0.8c-0.1,0-0.1,0.1-0.2,0.1c-0.1,0-0.2,0.1-0.2,0.1l-23.8,14.5
						c-2.9,1.7-6,3.1-9.2,4.1l-28.5,12.3c-4.1,1.8-8.4,0.5-12.7-0.4c0,0-30.4-7.6-39.8-12.2c-2.2-1.1-4.7-1.7-7.1-2.9
						c-3-1.4-5.7-3.6-7.2-8.3c-0.8-2.6-1.3-5.9-1.3-10.2c0-7.5-3.7-15.2,6-18.6c2.8-1,6.8-1.6,12.3-1.8c3-0.1,6.4,0,10.3,0.2
						c6.7,0.3,13,3.2,18.3,7.1c0,0,0,0,0,0c0,0,0,0,0,0c2.7,2,5,4.3,7.1,6.7c0,0,0,0,0,0c4.6,5.4,7.4,11.5,7.4,16.4
						c0,0.7-0.1,1.4-0.2,2.1c0,0.1,0,0.1,0,0.2l10.3-2.8l20.9-5.7c0.5-0.1,0.9-0.3,1.4-0.4h0c0.7-0.2,1.4-0.4,2.1-0.7
						c1.5-0.5,2.9-1.1,4.4-1.7l6.7-2.9h0l1.2-0.5l0.1,0h0l12.7-5.6c3.3-1.3,10.5-4.5,15.5-5c2.6-0.3,4.6,0.1,5.2,1.9
						c0.1,0.1,0.1,0.3,0.1,0.4c0,0.1,0,0.2,0.1,0.3c0,0.1,0,0.2,0,0.3C263.9,291,263.9,291.5,263.9,291.9z"/>
					<path class="st5" d="M164.8,286.7c4.8,2.9,17.5,13.6,23.1,13.2l32.9-2.9c4.9-0.7,9-2.4,9.6,2.6c0.6,4.5,1.5,8.4-8.4,11.6
						l-27.2,8.4c-2.5,0.6-11.5,0.1-14.1,0l-32.6-8.3c-9.4-0.6-10.5-28.8-1.1-28.2C148.5,283.1,158,282.6,164.8,286.7z"/>
					<path class="st6" d="M230.6,301.4c-0.1,4.4-3.3,7-8.8,8.3l-27.5,8.4c-1.4,0.4-4.8,0.4-7.9,0.3c-2.4-0.1-4.6-0.2-5.8-0.3
						l-7.7-0.5l-28.2-1.8c-3.5-0.2-6.7-1.5-9.2-3.4c-4.4-3.4-7.1-8.8-6.7-14.8c0.4-6.5,4.4-12,10-14.5c0.8-0.4,1.6-0.7,2.5-0.9
						c1.8-0.5,3.7-0.7,5.7-0.6c1.5,0.1,11-0.5,17.9,3.7c1,0.6,2.4,1.5,4,2.5c0,0,0,0,0,0c6,3.7,15,9.1,19.4,8.8l12.7-0.9l4.2-0.3
						l11.9-1c3.6-0.5,8.3-0.9,11.1,0.9c1,0.6,1.7,1.5,2,2.8c0,0.1,0.1,0.2,0.1,0.3C230.5,299.5,230.6,300.5,230.6,301.4z"/>
					<path class="st7" d="M229.1,302.8c-0.6,3.4-6.2,4-9,4.4c-1,0.1-2-0.1-2.8-0.7c-0.9-0.6-1.5-1.7-1.7-2.9l-0.3-2.4
						c-0.2-1.6,0.2-2.9,1.3-3.8c0.4-0.3,0.9-0.6,1.6-0.8C221,295.6,230.7,294.1,229.1,302.8z"/>
					<path class="st6" d="M141.5,280.8l-0.3,1.4l-0.2,1.1l-5.6,29.1l-0.5,2.9l-1,5.3c0,0-1.2-0.4-3.5-1.1c-10.1-2.8-41.7-9.4-90.3-1
						c-5.7,1-11.2-2.5-12.8-8.1c-2-6.9-4.1-16.4-4.1-25.1c0-3.2,0.3-6.3,0.8-9.1c0.7-4.1,1.8-7.8,2.9-10.8c0.1-0.4,0.3-0.8,0.5-1.1
						c2-3.9,6.4-6.1,10.8-5.1l101.9,21.3L141.5,280.8z"/>
					<path class="st8" d="M217.3,306.5c-0.9-0.6-1.5-1.7-1.7-2.9l-0.3-2.4c-0.2-1.6,0.2-2.9,1.3-3.8
						C217.6,299.5,218.6,302.7,217.3,306.5z"/>
				</g>
				<path class="st9" d="M257.4,300.4c-0.6,0.4-4.2,2.9-5.9,3.7l-23.8,14.5c-2.9,1.7-6,3.1-9.2,4.1l-28.5,12.3
					c-4.1,1.8-8.4,0.5-12.7-0.4c0,0-30.4-7.6-39.8-12.2c-2.2-1.1-4.7-1.7-7.1-2.9c-10.1-2.8-41.7-9.4-90.3-1
					c-5.7,1-11.2-2.5-12.8-8.1c-2-6.9-4.1-16.4-4.1-25.1c0-3.2,0.3-6.3,0.8-9.1c4.5,9.2,15.2,26.6,32.7,28.9
					c23.9,3.1,51.2,1.3,66.4,6.1c0.1,0,0.2,0.1,0.3,0.1c3,1,7,2.4,11.4,4c17.5,6.2,42.7,15.4,50.6,15.2c10-0.3,29.1-8.1,40.6-13.8
					c6-3,16.6-8.3,27.1-14.6C257.2,299.7,260.6,297.9,257.4,300.4z"/>
			</g>
			<g>
				<g>
					<g>
						<g>
							<path class="st5" d="M286.7,280.2l3.6-14.6c0,0-41.9-17.8-56.1-24.6c-3.6-1.7-14.4-5.3-16.3-3.4c-2.9,2.9,4.3,9.3,7.9,11.1
								L286.7,280.2z"/>
						</g>
					</g>
					<path class="st6" d="M211.7,243.6c0,0.1,0.1,0.3,0.1,0.4c0.6,2.4,2.7,4.9,5.2,7c0.1,0,0.1,0.1,0.2,0.1c0.4,0.3,0.8,0.7,1.2,1
						c0.2,0.1,0.3,0.2,0.5,0.4c0,0,0,0,0,0c0.7,0.5,1.4,1,2,1.4c0,0,0.1,0,0.1,0.1c0.4,0.3,0.8,0.5,1.2,0.7c0.5,0.3,1.1,0.6,1.5,0.8
						c0.1,0,0.1,0.1,0.2,0.1c0.1,0,0.2,0.1,0.2,0.1l23.8,14.5c2.9,1.7,6,3.1,9.2,4.1l28.5,12.3c4.1,1.8,8.4,0.5,12.7-0.4
						c0,0,30.4-7.6,39.8-12.2c2.2-1.1,4.7-1.7,7.1-2.9c3-1.4,5.7-3.6,7.2-8.3c0.8-2.6,1.3-5.9,1.3-10.2c0-7.5,3.7-15.2-6-18.6
						c-2.8-1-6.8-1.6-12.3-1.8c-3-0.1-6.4,0-10.3,0.2c-6.7,0.3-13,3.2-18.3,7.1c0,0,0,0,0,0c0,0,0,0,0,0c-2.7,2-5,4.3-7.1,6.7
						c0,0,0,0,0,0c-4.6,5.4-7.4,11.5-7.4,16.4c0,0.7,0.1,1.4,0.2,2.1c0,0.1,0,0.1,0,0.2l-10.3-2.8l-20.9-5.7
						c-0.5-0.1-0.9-0.3-1.4-0.4h0c-0.7-0.2-1.4-0.4-2.1-0.7c-1.5-0.5-2.9-1.1-4.4-1.7l-6.7-2.9h0l-1.2-0.5l-0.1,0h0l-12.7-5.6
						c-3.3-1.3-10.5-4.5-15.5-5c-2.6-0.3-4.6,0.1-5.2,1.9c-0.1,0.1-0.1,0.3-0.1,0.4c0,0.1,0,0.2-0.1,0.3c0,0.1,0,0.2,0,0.3
						C211.6,242.8,211.6,243.2,211.7,243.6z"/>
					<path class="st5" d="M310.7,238.4c-4.8,2.9-17.5,13.6-23.1,13.2l-32.9-2.9c-4.9-0.7-9-2.4-9.6,2.6c-0.6,4.5-1.5,8.4,8.4,11.6
						l27.2,8.4c2.5,0.6,11.5,0.1,14.1,0l32.6-8.3c9.4-0.6,10.5-28.8,1.1-28.2C327.1,234.8,317.6,234.3,310.7,238.4z"/>
					<path class="st6" d="M244.9,253.1c0.1,4.4,3.3,7,8.8,8.3l27.5,8.4c1.4,0.4,4.8,0.4,7.9,0.3c2.4-0.1,4.6-0.2,5.8-0.3l7.7-0.5
						l28.2-1.8c3.5-0.2,6.7-1.5,9.2-3.4c4.4-3.4,7.1-8.8,6.7-14.8c-0.4-6.5-4.4-12-10-14.5c-0.8-0.4-1.6-0.7-2.5-0.9
						c-1.8-0.5-3.7-0.7-5.7-0.6c-1.5,0.1-11-0.5-17.9,3.7c-1,0.6-2.4,1.5-4,2.5c0,0,0,0,0,0c-6,3.7-15,9.1-19.4,8.8l-12.7-0.9
						l-4.2-0.3l-11.9-1c-3.6-0.5-8.3-0.9-11.1,0.9c-1,0.6-1.7,1.5-2,2.8c0,0.1-0.1,0.2-0.1,0.3C245.1,251.2,244.9,252.2,244.9,253.1
						z"/>
					<path class="st7" d="M246.5,254.5c0.6,3.4,6.2,4,9,4.4c1,0.1,2-0.1,2.8-0.7c0.9-0.6,1.5-1.7,1.7-2.9l0.3-2.4
						c0.2-1.6-0.2-2.9-1.3-3.8c-0.4-0.3-0.9-0.6-1.6-0.8C254.6,247.3,244.9,245.9,246.5,254.5z"/>
					<path class="st6" d="M334,232.5l0.3,1.4l0.2,1.1l5.6,29.1l0.5,2.9l1,5.3c0,0,1.2-0.4,3.5-1.1c10.1-2.8,41.7-9.4,90.3-1
						c5.7,1,11.2-2.5,12.8-8.1c2-6.9,4.1-16.4,4.1-25.1c0-3.2-0.3-6.3-0.8-9.1c-0.7-4.1-1.8-7.8-2.9-10.8c-0.1-0.4-0.3-0.8-0.5-1.1
						c-2-3.9-6.4-6.1-10.8-5.1l-101.9,21.3L334,232.5z"/>
					<path class="st8" d="M258.3,258.2c0.9-0.6,1.5-1.7,1.7-2.9l0.3-2.4c0.2-1.6-0.2-2.9-1.3-3.8C258,251.2,257,254.4,258.3,258.2z"
						/>
				</g>
				<path class="st9" d="M218.2,252.1c0.6,0.4,4.2,2.9,5.9,3.7l23.8,14.5c2.9,1.7,6,3.1,9.2,4.1l28.5,12.3c4.1,1.8,8.4,0.5,12.7-0.4
					c0,0,30.4-7.6,39.8-12.2c2.2-1.1,4.7-1.7,7.1-2.9c10.1-2.8,41.7-9.4,90.3-1c5.7,1,11.2-2.5,12.8-8.1c2-6.9,4.1-16.4,4.1-25.1
					c0-3.2-0.3-6.3-0.8-9.1c-4.5,9.2-15.2,26.6-32.7,28.9c-23.9,3.1-51.2,1.3-66.4,6.1c-0.1,0-0.2,0.1-0.3,0.1c-3,1-7,2.4-11.4,4
					c-17.5,6.2-42.7,15.4-50.6,15.2c-10-0.3-29.1-8.1-40.6-13.8c-6-3-16.6-8.3-27.1-14.6C218.4,251.4,215,249.6,218.2,252.1z"/>
			</g>
		</g>
	</g>
	<g>
		<path class="st10" d="M267.8,163.9c-4.2,2-8.7,3.9-13.4,5.3c-3.8,4.2-8,8-12.5,11.5c-1.6,1.2-3.8,1.3-5.4,0
			c-6.1-4.6-11.5-10.1-16.5-16.2c-1.2-0.4-2.4-0.9-3.6-1.3c-3-1.1-5.9-2.2-9-3c-1.6-0.2-3.3-0.5-4.9-1c-1.4-0.2-2.8-0.3-4.2-0.3
			c-3.2,0-7,1.2-8.2,4c0,0.3,0.1,0.7,0.1,1c0.9,6.7,1.6,13,2.2,19.1c0.1,0.1,0.3,0.2,0.3,0.3c1.5,12.1,2,24.3,1.4,36.5
			c0,0.4-0.6,0.4-0.7,0.1c-0.2,4.8-0.5,9-1,12.7c0.2-0.1,0.6,0,0.5,0.3c-0.2,1.8-0.5,3.6-0.9,5.3c19.7,5.1,40.7,4.9,60.3-0.6
			c-14.4,1-29.4,0.2-44.9-2c-1.6-0.2-2.8-1.6-2.7-3.3c0.6-12.4,3.1-24.8,1.6-37c-0.2-1.8,1-3.4,2.8-3.6c22.5-2.5,43.5-3.2,61.2,0
			c1.4,0.2,2.4,1.3,2.6,2.7c1.6,11.7-0.6,23.7-1.4,35.6c4.2-2.3,8.2-5.1,11.5-8.5c0.8-15.3,0.1-36.6-3.6-61.9
			c-0.2-1.2-0.3-2.3-0.5-3.4c-0.3,0.4-0.7,0.8-1,1.1C275,160.2,271.4,162.2,267.8,163.9z"/>
		<g>
			<path class="st11" d="M190,163c1.2-2.8,5-4,8.2-4c1.4,0,2.8,0.1,4.2,0.3c-3.6-1-6.9-2.8-9-5.7c-0.2,0.1-0.4,0-0.5-0.2
				c-1.9-3.8-3.6-7.7-5.1-11.7c-0.4-1.1-0.9-2.3-1.3-3.5c0.2,0.8,0.3,1.7,0.4,2.5C188.3,148.1,189.2,155.5,190,163z"/>
			<path class="st11" d="M209.9,160.5c-0.8-0.1-1.7-0.1-2.5-0.2c3,0.8,6,1.9,9,3c1.2,0.4,2.4,0.9,3.6,1.3c-0.5-0.6-0.9-1.2-1.4-1.8
				c-0.5-0.7-0.8-1.5-0.9-2.3c-1.1-0.1-2.2-0.2-3.3-0.3c0.1,0,0.1,0,0.2,0.1c0.4,0.1,0.4,0.8-0.1,0.8c-0.7-0.1-1.4-0.2-2.1-0.4
				c-0.4-0.1-0.4-0.5-0.2-0.7c-1-0.1-1.9-0.2-2.8-0.3c0.2,0,0.4,0.1,0.6,0.1C210.4,159.9,210.3,160.5,209.9,160.5z"/>
			<path class="st11" d="M277.9,157.4c0.4-0.4,0.7-0.7,1-1.1c-0.1-0.7-0.2-1.5-0.3-2.2c0,0,0,0.1,0,0.1c0,0.2-0.1,0.4-0.2,0.6
				c0,0,0,0,0,0c-0.1,2.7-2.8,3.7-5,4.2c-3.1,0.7-6.5,1.7-9.7,1.2c-0.1,0-0.2-0.1-0.2-0.2c-1,0.1-2,0.2-3,0.3c0,1-0.3,1.9-0.9,2.7
				c-1.7,2.1-3.4,4.1-5.2,6c4.6-1.4,9.2-3.3,13.4-5.3C271.4,162.2,275,160.2,277.9,157.4z"/>
			<path class="st11" d="M271.6,230.1c-0.1,0.9-0.1,1.8-0.1,2.6c-0.1,1.5-1.1,2.7-2.6,3c-5.4,0.9-10.9,1.6-16.5,2
				c-19.6,5.5-40.6,5.7-60.3,0.6c-0.3,1.1-0.6,2.3-0.9,3.4c-0.7,2.3-1.4,5.7-3.3,7.4c-0.4,0.4-1-0.2-0.7-0.7c1-1.2,1.4-2.8,1.9-4.2
				c0.4-1.2,0.8-2.4,1.2-3.6c0.7-2.5,1.3-5.1,1.9-7.7c0-0.1,0.1-0.2,0.2-0.2c0.4-3.7,0.8-7.9,1-12.7c0,0,0,0,0-0.1
				c0.4-12.2-0.1-24.3-1.5-36.5c0-0.3,0.3-0.4,0.5-0.3c-0.5-6-1.2-12.4-2.2-19.1c0.1,1.2,0.3,2.5,0.4,3.7c0,0.4-0.6,0.4-0.6,0.1
				c-1.3-9-2.4-18.1-4-27.1c-1.6-9-3.8-17.8-6.5-26.5c-0.1-0.3,0.1-0.4,0.3-0.5c-0.5-1.2-1-1.9-1.4-2.4c-0.2-0.2-0.4-0.3-0.7-0.3
				c-0.4,0-0.8,0.3-0.9,0.8c-1.6,8.1-14.3,74-7.6,103.5c2.1,9.4,4.3,16.3,6.4,21.4c0,0,0,0,0,0c2.4-8.1,6.6-15.8,11.4-22.6
				c0,0,0.1-0.1,0.1-0.1c-0.1-0.1,0-0.3,0-0.4c-0.1,0-0.2-0.1-0.3-0.3c-1.8-12.5-2.5-25.2-3.4-37.8c-1-12.8-1.9-25.6-2.5-38.4
				c0-0.4,0.6-0.4,0.7,0c1,12.7,1.8,25.4,2.8,38.1c1,12.7,2.6,25.3,3.3,38c0,0.1,0,0.2-0.1,0.3c0,0,0.1,0,0.1,0.1
				c1.8,2.2,3.5,4.8,4.2,7.6c0.1,0.4-0.5,0.6-0.6,0.3c-1.2-2.3-2.3-4.6-3.7-6.8c-4.7,7-8.2,14.5-11.1,22.3c-0.1,0.3-0.4,0.3-0.6,0.2
				c4.1,9.6,7.8,12.1,10.6,12l0,0c30.9,3.5,61.4,3.6,90.3-0.4l0,0c0.4-0.1,0.7-0.1,1-0.3c2.1-0.9,4.7-10.5,5.5-26.8
				C279.8,224.9,275.8,227.7,271.6,230.1z"/>
		</g>
		<path class="st12" d="M268.2,111c-0.2-0.3-0.5-0.3-0.8-0.3l-89.7,0.4v0c0.2,0,0.5,0.1,0.7,0.3c0.4,0.4,0.9,1.2,1.4,2.4
			c0.2,0,0.4,0,0.5,0.3c2,5.3,3.6,10.7,4.8,16.2c1.3,3.5,2.4,7.1,3.8,10.6c1.5,3.9,3.2,7.8,4.9,11.7c1.6,2.1,3.8,3.6,6.3,4.7
			c3.1,1.3,6.4,1.8,9.6,2.5c0.9,0.1,1.8,0.2,2.8,0.3c0.1-0.1,0.3-0.2,0.5-0.2c0.6,0.1,1.2,0.2,1.8,0.4c1.1,0.1,2.2,0.2,3.3,0.3
			c-0.1-1,0.2-2.1,0.9-3c5.3-7.1,11.2-13,17.7-17.8c1.7-1.3,4.1-1.1,5.6,0.3c6.1,5.6,11.9,11.4,17.5,17.5c0.8,0.8,1.2,1.9,1.2,3
			c1-0.1,2-0.2,3-0.3c-0.1-0.2,0-0.6,0.3-0.5c2.6,0.1,5.2-0.6,7.7-1.1c2.4-0.5,5.5-0.8,6.1-3.7c0.1-0.4,0.7-0.3,0.7,0.1
			c0.1-0.2,0.1-0.4,0.2-0.6c0,0,0-0.1,0-0.1C280.7,143.6,273.9,115.8,268.2,111z"/>
		<path class="st13" d="M220,164.6c5,6.1,10.4,11.6,16.5,16.2c1.6,1.2,3.8,1.2,5.4,0c4.5-3.5,8.6-7.4,12.5-11.5c1.8-1.9,3.5-4,5.2-6
			c0.6-0.8,1-1.8,0.9-2.7c0-1.1-0.4-2.1-1.2-3c-5.6-6.1-11.4-11.9-17.5-17.5c-1.6-1.4-3.9-1.6-5.6-0.3c-6.5,4.8-12.4,10.8-17.7,17.8
			c-0.7,0.9-0.9,2-0.9,3c0.1,0.8,0.4,1.6,0.9,2.3C219.1,163.4,219.6,164,220,164.6z"/>
		<g>
			<path class="st14" d="M210,159.8c-0.2,0-0.4-0.1-0.6-0.1c-3.2-0.7-6.5-1.2-9.6-2.5c-2.4-1.1-4.6-2.6-6.3-4.7
				c-1.6-3.9-3.3-7.7-4.9-11.7c-1.4-3.5-2.5-7.1-3.8-10.6c-1.2-5.5-2.8-11-4.8-16.2c-0.1-0.2-0.3-0.3-0.5-0.3
				c-0.2,0-0.4,0.2-0.3,0.5c2.7,8.7,4.9,17.6,6.5,26.5c1.6,9,2.7,18.1,4,27.1c0.1,0.4,0.7,0.3,0.6-0.1c-0.1-1.3-0.3-2.5-0.4-3.7
				c0-0.4-0.1-0.7-0.1-1c-0.8-7.4-1.8-14.8-3-22.2c-0.1-0.8-0.3-1.7-0.4-2.5c0.4,1.2,0.9,2.3,1.3,3.5c1.5,4,3.2,7.9,5.1,11.7
				c0.1,0.2,0.3,0.3,0.5,0.2c2.2,2.9,5.5,4.6,9,5.7c1.6,0.5,3.3,0.8,4.9,1c0.9,0.1,1.7,0.2,2.5,0.2
				C210.3,160.5,210.4,159.9,210,159.8z"/>
			<path class="st14" d="M192,181.3c0-0.2,0-0.4,0-0.6c0-0.3-0.5-0.3-0.5,0c0,0.2,0,0.4,0,0.6C191.5,181.6,192,181.6,192,181.3z"/>
			<path class="st14" d="M192.3,183.1c-0.2-0.1-0.6,0-0.5,0.3c1.4,12.1,1.9,24.3,1.5,36.5c0,0,0,0,0,0.1c0.1,0.4,0.6,0.3,0.7-0.1
				c0.6-12.1,0.1-24.4-1.4-36.5C192.6,183.2,192.4,183.1,192.3,183.1z"/>
			<path class="st14" d="M192.3,232.6c-0.1,0-0.2,0.1-0.2,0.2c-0.6,2.6-1.1,5.1-1.9,7.7c-0.4,1.2-0.8,2.4-1.2,3.6
				c-0.5,1.4-0.9,3.1-1.9,4.2c-0.4,0.4,0.2,1.1,0.7,0.7c1.9-1.7,2.6-5.1,3.3-7.4c0.3-1.1,0.6-2.2,0.9-3.4c0.4-1.8,0.7-3.5,0.9-5.3
				C192.9,232.6,192.6,232.5,192.3,232.6z"/>
			<path class="st14" d="M191.1,221.4c0.2,0.4,0.7,0.1,0.6-0.3c-0.7-2.8-2.4-5.3-4.2-7.6c0,0-0.1-0.1-0.1-0.1
				c0.1-0.1,0.1-0.2,0.1-0.3c-0.7-12.7-2.2-25.4-3.3-38c-1-12.7-1.8-25.4-2.8-38.1c0-0.4-0.7-0.4-0.7,0c0.5,12.8,1.5,25.6,2.5,38.4
				c1,12.6,1.7,25.3,3.4,37.8c0,0.2,0.1,0.3,0.3,0.3c-0.1,0.1-0.1,0.2,0,0.4c0,0-0.1,0.1-0.1,0.1c-4.9,6.9-9,14.5-11.4,22.6
				c0,0,0,0,0,0c-0.1,0.2,0,0.4,0.2,0.4c0.2,0.1,0.5,0.1,0.6-0.2c3-7.9,6.4-15.4,11.1-22.3C188.9,216.8,189.9,219.1,191.1,221.4z"/>
			<path class="st14" d="M214.6,160.3c-0.1,0-0.1,0-0.2-0.1c-0.6-0.2-1.2-0.3-1.8-0.4c-0.2,0-0.4,0-0.5,0.2
				c-0.2,0.2-0.1,0.6,0.2,0.7c0.7,0.2,1.4,0.3,2.1,0.4C215,161.1,215,160.4,214.6,160.3z"/>
			<path class="st14" d="M278.4,154.8c0-0.4-0.6-0.5-0.7-0.1c-0.6,2.9-3.7,3.2-6.1,3.7c-2.6,0.5-5.1,1.2-7.7,1.1
				c-0.3,0-0.4,0.3-0.3,0.5c0,0.1,0.1,0.1,0.2,0.2c3.2,0.5,6.6-0.5,9.7-1.2C275.7,158.5,278.3,157.5,278.4,154.8
				C278.4,154.8,278.4,154.8,278.4,154.8z"/>
		</g>
		<path class="st15" d="M250.8,227.3c-0.2,0-0.3,0-0.5,0.1c-0.6,0.1-0.8,1-0.4,1.4c0.4,0.4,1.3,0.3,1.4-0.4c0-0.2,0.1-0.3,0.1-0.5
			C251.4,227.6,251.1,227.3,250.8,227.3z"/>
		<path class="st15" d="M254.5,223.3c1.1,0,1.1-1.8,0-1.8C253.4,221.5,253.4,223.3,254.5,223.3z"/>
		<path class="st15" d="M255.8,227.8c1.1,0,1.1-1.8,0-1.8C254.7,226,254.7,227.8,255.8,227.8z"/>
		<path class="st15" d="M262.6,199.8c1,0,1-1.5,0-1.5C261.6,198.3,261.6,199.8,262.6,199.8z"/>
		<path class="st15" d="M259.4,206.4c0.2,0.1,0.4,0.1,0.6,0.1c0.1,0,0.1,0,0.2,0c0.5,0,0.9-0.4,0.9-0.9c0-0.5-0.3-0.9-0.8-1
			c-0.5-0.1-0.9,0-1.2,0.5C258.8,205.5,258.9,206.1,259.4,206.4z M259.3,205.7c0,0,0-0.1,0-0.1C259.3,205.7,259.3,205.7,259.3,205.7
			z"/>
		<path class="st15" d="M251.9,201c-0.9,0-0.9,1.4,0,1.4C252.8,202.4,252.8,201,251.9,201z"/>
		<path class="st15" d="M213.6,215.9c-1,0-1,1.5,0,1.5C214.5,217.4,214.5,215.9,213.6,215.9z"/>
		<path class="st15" d="M219.9,225.2c-0.1-0.2-0.4-0.4-0.7-0.3c-0.3,0.1-0.5,0.3-0.5,0.6c0,0.3,0,0.5,0.1,0.8c0,0.3,0.1,0.6,0.4,0.7
			c0.2,0.1,0.4,0.1,0.6,0.1c0.5-0.1,0.8-0.8,0.5-1.2C220.2,225.7,220.1,225.5,219.9,225.2z"/>
		<path class="st15" d="M221.4,214.7c-0.2,0-0.3,0-0.5-0.1c-0.4,0-0.8,0.4-0.8,0.8c0,0.2,0,0.3,0.1,0.5c0,0.3,0.4,0.6,0.7,0.7
			c0.3,0.1,0.7,0,0.9-0.2c0.2-0.2,0.3-0.6,0.2-0.9C222,215.1,221.7,214.7,221.4,214.7z"/>
		<path class="st15" d="M235.3,222.3c0.6,0,0.6-0.9,0-0.9C234.8,221.5,234.8,222.3,235.3,222.3z"/>
		<path class="st15" d="M232.2,198.3c-1,0-1,1.6,0,1.6C233.2,199.9,233.2,198.3,232.2,198.3z"/>
		<path class="st15" d="M267.3,217.6c0.9,0,0.9-1.4,0-1.4C266.5,216.2,266.5,217.6,267.3,217.6z"/>
		<path class="st15" d="M241.4,207.6c-0.9,0-0.9,0.9,0,0.9C242.2,208.5,242.3,207.6,241.4,207.6z"/>
		<path class="st15" d="M236.2,235c-0.4-0.2-0.9,0-0.9,0.5c0,0.5,0.2,0.7,0.1,1.1c-0.1,0.4,0.1,0.8,0.5,0.9c0.4,0.1,0.8-0.1,0.9-0.5
			C237,236.3,236.9,235.4,236.2,235z"/>
		<path class="st15" d="M219.5,201c0.1-0.2,0.2-0.4,0.1-0.6c-0.1-0.2-0.3-0.3-0.5-0.3c-0.2,0-0.5,0.1-0.7,0.2
			c-0.4,0.1-0.6,0.5-0.4,0.9c0.1,0.3,0.6,0.5,0.9,0.3C219.1,201.3,219.3,201.2,219.5,201z"/>
		<path class="st15" d="M245.3,195.7c-1,0-1,1.5,0,1.5C246.3,197.2,246.3,195.7,245.3,195.7z"/>
		<path class="st16" d="M234.7,227.6c-0.3-0.2-0.6-0.1-0.9,0.1c-0.2,0.1-0.3,0.3-0.3,0.5c0,0.2,0.1,0.4,0.3,0.5
			c0.2,0.2,0.5,0.3,0.8,0.1c0.3-0.1,0.5-0.4,0.4-0.7C235.1,228,234.9,227.7,234.7,227.6z"/>
		<path class="st16" d="M230.7,224.3c-0.2-0.3-0.7-0.3-0.9,0c0,0.1-0.1,0.1-0.1,0.2c-0.3,0.4,0.1,1,0.6,1c0.5,0,0.9-0.6,0.6-1
			C230.8,224.5,230.8,224.4,230.7,224.3z"/>
		<path class="st16" d="M236.8,225.1c-0.9,0-0.9,1.4,0,1.4C237.7,226.5,237.7,225.1,236.8,225.1z"/>
		<path class="st16" d="M217.5,196.2c-0.9,0-0.9,1.4,0,1.4C218.3,197.5,218.3,196.2,217.5,196.2z"/>
		<path class="st16" d="M210.9,227.1c-0.9,0-0.9,1.4,0,1.4C211.8,228.4,211.8,227.1,210.9,227.1z"/>
		<path class="st16" d="M264.1,208.8c0.8,0,0.8-1.3,0-1.3C263.2,207.5,263.2,208.8,264.1,208.8z"/>
		<path class="st16" d="M267,223.2c1,0,1-1.5,0-1.5C266,221.7,266,223.2,267,223.2z"/>
		<path class="st16" d="M255.1,216.7c0.4,0,0.4-0.6,0-0.6C254.7,216.1,254.7,216.7,255.1,216.7z"/>
		<path class="st16" d="M251.7,195.4c0.9,0,0.9-1.4,0-1.4C250.9,194,250.9,195.4,251.7,195.4z"/>
		<path class="st16" d="M245.2,204.1c-0.6,0-0.6,0.9,0,0.9C245.8,205,245.8,204.1,245.2,204.1z"/>
		<rect x="204.7" y="189.3" class="st10" width="74.3" height="52.6"/>
	</g>
</g>
</svg>
